<?xml version="1.0" standalone="no"?>
<!DOCTYPE svg PUBLIC "-//W3C//DTD SVG 20010904//EN"
 "http://www.w3.org/TR/2001/REC-SVG-20010904/DTD/svg10.dtd">
<svg version="1.0" xmlns="http://www.w3.org/2000/svg"
 width="1280.000000pt" height="1280.000000pt" viewBox="0 0 1280.000000 1280.000000"
 preserveAspectRatio="xMidYMid meet">
<metadata>
Created by potrace 1.15, written by Peter Selinger 2001-2017
</metadata>
<g transform="translate(0.000000,1280.000000) scale(0.100000,-0.100000)"
fill="#8c2125" stroke="none">
<path d="M345 12786 c-83 -20 -146 -56 -211 -120 -65 -66 -105 -137 -123 -224
-16 -76 -16 -12008 0 -12084 36 -172 175 -311 347 -347 76 -16 12008 -16
12084 0 172 36 311 175 347 347 16 76 16 12008 0 12084 -36 172 -175 311 -347
347 -80 17 -12028 14 -12097 -3z m12167 -73 c93 -44 151 -100 196 -191 l37
-76 0 -6045 0 -6046 -32 -67 c-44 -93 -100 -151 -191 -196 l-76 -37 -6046 0
-6046 0 -76 37 c-91 45 -147 103 -191 196 l-32 67 0 6045 0 6045 32 67 c17 37
50 87 72 111 44 48 135 101 197 116 23 5 2457 8 6064 8 l6025 -2 67 -32z"/>
<path d="M8315 10995 c-519 -67 -1063 -332 -1420 -691 -346 -349 -546 -781
-616 -1329 -23 -181 -12 -646 17 -747 5 -16 -2 -18 -53 -18 -126 0 -420 33
-663 75 -797 137 -1682 460 -2325 848 -629 380 -1213 880 -1623 1389 -51 63
-73 84 -80 75 -5 -7 -33 -55 -60 -107 -129 -243 -224 -546 -263 -835 -18 -133
-15 -438 5 -570 54 -353 206 -721 421 -1015 116 -161 313 -365 449 -468 l69
-52 -36 0 c-67 0 -260 31 -372 60 -138 35 -294 96 -444 172 l-114 57 6 -182
c12 -331 81 -607 226 -902 144 -292 321 -510 596 -735 211 -173 528 -349 790
-439 76 -27 134 -51 129 -54 -19 -11 -191 -37 -322 -48 -175 -15 -442 5 -605
46 l-28 7 22 -58 c162 -438 468 -862 804 -1115 344 -258 783 -427 1235 -475
l64 -6 -29 -24 c-60 -49 -283 -193 -414 -268 -521 -300 -1095 -505 -1636 -586
-267 -40 -479 -53 -800 -47 -165 3 -334 10 -375 16 -41 5 -100 13 -130 16
l-55 7 35 -25 c121 -85 429 -253 680 -370 405 -190 879 -357 1335 -471 1264
-314 2508 -279 3685 106 526 172 1017 404 1529 723 979 609 1692 1368 2205
2348 492 937 769 2059 780 3156 l3 263 145 117 c309 246 515 447 725 707 118
146 313 407 313 419 0 3 -23 -6 -50 -20 -119 -60 -377 -155 -595 -218 -203
-59 -569 -134 -609 -125 -10 2 14 25 62 60 178 132 381 333 507 503 124 168
252 409 319 604 l36 103 -27 -18 c-347 -228 -925 -456 -1391 -549 l-82 -16
-73 67 c-148 137 -399 309 -596 408 -160 81 -380 159 -566 200 -207 45 -525
59 -740 31z m620 -59 c462 -81 910 -304 1257 -625 42 -39 83 -71 91 -71 29 0
223 41 333 70 320 85 747 255 1002 400 39 22 72 36 72 31 0 -18 -78 -191 -126
-279 -183 -335 -446 -616 -801 -856 -57 -38 -101 -71 -99 -74 6 -5 207 16 326
34 263 41 597 133 904 248 37 14 70 26 73 26 20 0 -311 -403 -446 -543 -134
-138 -334 -315 -521 -460 l-114 -89 -2 -271 c-10 -1396 -448 -2796 -1207
-3857 -492 -688 -1087 -1225 -1892 -1707 -1613 -967 -3417 -1198 -5268 -677
-398 112 -873 293 -1209 459 -151 76 -398 208 -398 214 0 4 39 3 88 -1 137
-10 556 -9 698 2 356 28 659 85 984 184 422 128 911 359 1283 606 107 72 296
212 297 221 0 3 -57 9 -127 12 -358 16 -769 145 -1098 344 -322 195 -573 462
-790 838 -68 118 -174 345 -162 345 2 0 50 -7 108 -16 144 -23 438 -23 590 -1
115 17 268 53 344 80 l40 15 -30 7 c-279 67 -420 119 -645 236 -212 111 -408
253 -590 425 -177 169 -310 351 -420 578 -112 229 -182 472 -209 728 -10 90
-15 238 -8 238 2 0 57 -25 122 -55 152 -70 336 -130 490 -160 123 -24 383 -50
444 -43 l35 3 -62 38 c-389 239 -730 669 -897 1132 -96 267 -128 443 -127 720
0 205 14 330 59 520 44 186 143 451 211 568 l28 47 94 -112 c112 -135 493
-518 640 -644 432 -372 886 -674 1345 -899 770 -376 1610 -619 2385 -690 91
-8 202 -15 248 -15 80 0 82 1 77 23 -16 76 -27 162 -37 310 -25 360 33 756
157 1075 233 596 716 1038 1390 1269 132 45 309 88 420 102 50 6 101 13 115
15 60 10 450 -3 535 -18z"/>
</g>
</svg>
